<?xml version="1.0" encoding="UTF-8" standalone="no"?>
<!-- Generated by the Fritzing Team. http://www.fritzing.org. CreativeCommons:BY -->

<!-- This file was created through a template.-->

<svg
   xmlns:dc="http://purl.org/dc/elements/1.1/"
   xmlns:cc="http://creativecommons.org/ns#"
   xmlns:rdf="http://www.w3.org/1999/02/22-rdf-syntax-ns#"
   xmlns:svg="http://www.w3.org/2000/svg"
   xmlns="http://www.w3.org/2000/svg"
   xmlns:xlink="http://www.w3.org/1999/xlink"
   xmlns:sodipodi="http://sodipodi.sourceforge.net/DTD/sodipodi-0.dtd"
   xmlns:inkscape="http://www.inkscape.org/namespaces/inkscape"
   version="1.2"
   id="svg2"
   x="0px"
   y="0px"
   width="32px"
   height="32px"
   viewBox="0 0 32 32"
   inkscape:version="0.47 r22583"
   sodipodi:docname="atmega168_icon.svg">
  <metadata
     id="metadata76">
    <rdf:RDF>
      <cc:Work
         rdf:about="">
        <dc:format>image/svg+xml</dc:format>
        <dc:type
           rdf:resource="http://purl.org/dc/dcmitype/StillImage" />
        <dc:title></dc:title>
      </cc:Work>
    </rdf:RDF>
  </metadata>
  <defs
     id="defs74">
    <inkscape:perspective
       sodipodi:type="inkscape:persp3d"
       inkscape:vp_x="0 : 16 : 1"
       inkscape:vp_y="0 : 1000 : 0"
       inkscape:vp_z="32 : 16 : 1"
       inkscape:persp3d-origin="16 : 10.666667 : 1"
       id="perspective78" />
    <inkscape:perspective
       id="perspective3229"
       inkscape:persp3d-origin="0.5 : 0.33333333 : 1"
       inkscape:vp_z="1 : 0.5 : 1"
       inkscape:vp_y="0 : 1000 : 0"
       inkscape:vp_x="0 : 0.5 : 1"
       sodipodi:type="inkscape:persp3d" />
    <radialGradient
       cx="11.25"
       cy="19.03125"
       r="8.0625"
       fx="11.25"
       fy="19.03125"
       id="radialGradient2526"
       xlink:href="#linearGradient5105-262-943-861"
       gradientUnits="userSpaceOnUse"
       gradientTransform="matrix(1,0,0,0.282946,0,13.64644)" />
    <linearGradient
       id="linearGradient5105-262-943-861">
      <stop
         id="stop2487"
         style="stop-color:#0d0d0d;stop-opacity:1"
         offset="0" />
      <stop
         id="stop2489"
         style="stop-color:#0d0d0d;stop-opacity:0"
         offset="1" />
    </linearGradient>
    <linearGradient
       x1="22.181572"
       y1="14.499924"
       x2="22.181572"
       y2="44.051018"
       id="linearGradient2532"
       xlink:href="#linearGradient4168"
       gradientUnits="userSpaceOnUse"
       gradientTransform="matrix(0.5165267,0,0,0.5333212,0.5426265,-0.7415553)" />
    <linearGradient
       id="linearGradient4168">
      <stop
         id="stop4170"
         style="stop-color:#f8cd70;stop-opacity:1"
         offset="0" />
      <stop
         id="stop4172"
         style="stop-color:#cc9110;stop-opacity:1"
         offset="1" />
    </linearGradient>
    <linearGradient
       x1="28.62199"
       y1="18.218788"
       x2="28.62199"
       y2="49.56282"
       id="linearGradient2529"
       xlink:href="#linearGradient4222"
       gradientUnits="userSpaceOnUse"
       gradientTransform="matrix(-0.599071,0,0,0.6156931,27.232032,-3.9814102)" />
    <linearGradient
       id="linearGradient4222">
      <stop
         id="stop4224"
         style="stop-color:white;stop-opacity:1"
         offset="0" />
      <stop
         id="stop4226"
         style="stop-color:white;stop-opacity:0"
         offset="1" />
    </linearGradient>
    <linearGradient
       y2="49.56282"
       x2="28.62199"
       y1="18.218788"
       x1="28.62199"
       gradientTransform="matrix(-0.599071,0,0,0.6156931,27.232032,-3.9814102)"
       gradientUnits="userSpaceOnUse"
       id="linearGradient3249"
       xlink:href="#linearGradient4222"
       inkscape:collect="always" />
  </defs>
  <sodipodi:namedview
     pagecolor="#ffffff"
     bordercolor="#666666"
     borderopacity="1"
     objecttolerance="10"
     gridtolerance="10"
     guidetolerance="10"
     inkscape:pageopacity="0"
     inkscape:pageshadow="2"
     inkscape:window-width="1280"
     inkscape:window-height="719"
     id="namedview72"
     showgrid="false"
     inkscape:zoom="3.6875"
     inkscape:cx="16"
     inkscape:cy="26.847458"
     inkscape:window-x="0"
     inkscape:window-y="27"
     inkscape:window-maximized="1"
     inkscape:current-layer="svg2" />
  <g
     id="icon"
     transform="matrix(0,0.17941889,-0.3329738,0,30.392374,3.9177967)">
    <rect
       x="3.5"
       y="26.32"
       width="3"
       height="6.6799998"
       id="rect4"
       style="fill:#8c8c8c" />
    <rect
       x="13.5"
       y="26.32"
       width="3"
       height="6.6799998"
       id="rect6"
       style="fill:#8c8c8c" />
    <rect
       x="23.5"
       y="26.32"
       width="3"
       height="6.6799998"
       id="rect8"
       style="fill:#8c8c8c" />
    <rect
       x="33.5"
       y="26.32"
       width="3"
       height="6.6799998"
       id="rect10"
       style="fill:#8c8c8c" />
    <rect
       x="43.5"
       y="26.32"
       width="3"
       height="6.6799998"
       id="rect12"
       style="fill:#8c8c8c" />
    <rect
       x="53.5"
       y="26.32"
       width="3"
       height="6.6799998"
       id="rect14"
       style="fill:#8c8c8c" />
    <rect
       x="63.5"
       y="26.32"
       width="3"
       height="6.6799998"
       id="rect16"
       style="fill:#8c8c8c" />
    <rect
       x="73.5"
       y="26.32"
       width="3"
       height="6.6799998"
       id="rect18"
       style="fill:#8c8c8c" />
    <rect
       x="83.5"
       y="26.32"
       width="3"
       height="6.6799998"
       id="rect20"
       style="fill:#8c8c8c" />
    <rect
       x="93.5"
       y="26.32"
       width="3"
       height="6.6799998"
       id="rect22"
       style="fill:#8c8c8c" />
    <rect
       x="103.5"
       y="26.32"
       width="3"
       height="6.6799998"
       id="rect24"
       style="fill:#8c8c8c" />
    <rect
       x="113.5"
       y="26.32"
       width="3"
       height="6.6799998"
       id="rect26"
       style="fill:#8c8c8c" />
    <rect
       x="123.5"
       y="26.32"
       width="3"
       height="6.6799998"
       id="rect28"
       style="fill:#8c8c8c" />
    <rect
       x="133.5"
       y="26.32"
       width="3"
       height="6.6799998"
       id="rect30"
       style="fill:#8c8c8c" />
    <rect
       x="133.5"
       y="0"
       width="3"
       height="6.6799998"
       id="rect32"
       style="fill:#8c8c8c" />
    <rect
       x="123.5"
       y="0"
       width="3"
       height="6.6799998"
       id="rect34"
       style="fill:#8c8c8c" />
    <rect
       x="113.5"
       y="0"
       width="3"
       height="6.6799998"
       id="rect36"
       style="fill:#8c8c8c" />
    <rect
       x="103.5"
       y="0"
       width="3"
       height="6.6799998"
       id="rect38"
       style="fill:#8c8c8c" />
    <rect
       x="93.5"
       y="0"
       width="3"
       height="6.6799998"
       id="rect40"
       style="fill:#8c8c8c" />
    <rect
       x="83.5"
       y="0"
       width="3"
       height="6.6799998"
       id="rect42"
       style="fill:#8c8c8c" />
    <rect
       x="73.5"
       y="0"
       width="3"
       height="6.6799998"
       id="rect44"
       style="fill:#8c8c8c" />
    <rect
       x="63.5"
       y="0"
       width="3"
       height="6.6799998"
       id="rect46"
       style="fill:#8c8c8c" />
    <rect
       x="53.5"
       y="0"
       width="3"
       height="6.6799998"
       id="rect48"
       style="fill:#8c8c8c" />
    <rect
       x="43.5"
       y="0"
       width="3"
       height="6.6799998"
       id="rect50"
       style="fill:#8c8c8c" />
    <rect
       x="33.5"
       y="0"
       width="3"
       height="6.6799998"
       id="rect52"
       style="fill:#8c8c8c" />
    <rect
       x="23.5"
       y="0"
       width="3"
       height="6.6799998"
       id="rect54"
       style="fill:#8c8c8c" />
    <rect
       x="13.5"
       y="0"
       width="3"
       height="6.6799998"
       id="rect56"
       style="fill:#8c8c8c" />
    <rect
       x="3.5"
       y="0"
       width="3"
       height="6.6799998"
       id="rect58"
       style="fill:#8c8c8c" />
    <polygon
       points="0,3 140,3 139.25,11.5 0,11.5 "
       id="polygon60"
       style="fill:#3d3d3d" />
    <polygon
       points="0,21.5 139.25,21.5 140,30 0,30 "
       id="polygon62" />
    <polygon
       points="6.5,2.34 3.5,2.34 3.5,4.34 8.5,4.34 8.5,3.26 "
       id="polygon64"
       style="fill:#8c8c8c" />
    <polygon
       points="133.5,2.34 131.5,3.26 131.5,4.34 136.5,4.34 136.5,2.34 "
       id="polygon66"
       style="fill:#8c8c8c" />
    <polygon
       points="6.5,30.66 8.5,29.74 8.5,28.66 3.5,28.66 3.5,30.66 "
       id="polygon68"
       style="fill:#8c8c8c" />
    <polygon
       points="133.5,30.66 136.5,30.66 136.5,28.66 131.5,28.66 131.5,29.74 "
       id="polygon70"
       style="fill:#8c8c8c" />
    <polygon
       points="18.5,4.34 18.5,3.26 16.5,2.34 13.5,2.34 11.5,3.26 11.5,4.34 "
       id="polygon72"
       style="fill:#8c8c8c" />
    <polygon
       points="11.5,28.66 11.5,29.74 13.5,30.66 16.5,30.66 18.5,29.74 18.5,28.66 "
       id="polygon74"
       style="fill:#8c8c8c" />
    <polygon
       points="28.5,4.34 28.5,3.26 26.5,2.34 23.5,2.34 21.5,3.26 21.5,4.34 "
       id="polygon76"
       style="fill:#8c8c8c" />
    <polygon
       points="21.5,28.66 21.5,29.74 23.5,30.66 26.5,30.66 28.5,29.74 28.5,28.66 "
       id="polygon78"
       style="fill:#8c8c8c" />
    <polygon
       points="38.5,4.34 38.5,3.26 36.5,2.34 33.5,2.34 31.5,3.26 31.5,4.34 "
       id="polygon80"
       style="fill:#8c8c8c" />
    <polygon
       points="31.5,28.66 31.5,29.74 33.5,30.66 36.5,30.66 38.5,29.74 38.5,28.66 "
       id="polygon82"
       style="fill:#8c8c8c" />
    <polygon
       points="48.5,4.34 48.5,3.26 46.5,2.34 43.5,2.34 41.5,3.26 41.5,4.34 "
       id="polygon84"
       style="fill:#8c8c8c" />
    <polygon
       points="41.5,28.66 41.5,29.74 43.5,30.66 46.5,30.66 48.5,29.74 48.5,28.66 "
       id="polygon86"
       style="fill:#8c8c8c" />
    <polygon
       points="58.5,4.34 58.5,3.26 56.5,2.34 53.5,2.34 51.5,3.26 51.5,4.34 "
       id="polygon88"
       style="fill:#8c8c8c" />
    <polygon
       points="51.5,28.66 51.5,29.74 53.5,30.66 56.5,30.66 58.5,29.74 58.5,28.66 "
       id="polygon90"
       style="fill:#8c8c8c" />
    <polygon
       points="68.5,4.34 68.5,3.26 66.5,2.34 63.5,2.34 61.5,3.26 61.5,4.34 "
       id="polygon92"
       style="fill:#8c8c8c" />
    <polygon
       points="61.5,28.66 61.5,29.74 63.5,30.66 66.5,30.66 68.5,29.74 68.5,28.66 "
       id="polygon94"
       style="fill:#8c8c8c" />
    <polygon
       points="78.5,4.34 78.5,3.26 76.5,2.34 73.5,2.34 71.5,3.26 71.5,4.34 "
       id="polygon96"
       style="fill:#8c8c8c" />
    <polygon
       points="71.5,28.66 71.5,29.74 73.5,30.66 76.5,30.66 78.5,29.74 78.5,28.66 "
       id="polygon98"
       style="fill:#8c8c8c" />
    <polygon
       points="88.5,4.34 88.5,3.26 86.5,2.34 83.5,2.34 81.5,3.26 81.5,4.34 "
       id="polygon100"
       style="fill:#8c8c8c" />
    <polygon
       points="81.5,28.66 81.5,29.74 83.5,30.66 86.5,30.66 88.5,29.74 88.5,28.66 "
       id="polygon102"
       style="fill:#8c8c8c" />
    <polygon
       points="98.5,4.34 98.5,3.26 96.5,2.34 93.5,2.34 91.5,3.26 91.5,4.34 "
       id="polygon104"
       style="fill:#8c8c8c" />
    <polygon
       points="91.5,28.66 91.5,29.74 93.5,30.66 96.5,30.66 98.5,29.74 98.5,28.66 "
       id="polygon106"
       style="fill:#8c8c8c" />
    <polygon
       points="108.5,4.34 108.5,3.26 106.5,2.34 103.5,2.34 101.5,3.26 101.5,4.34 "
       id="polygon108"
       style="fill:#8c8c8c" />
    <polygon
       points="101.5,28.66 101.5,29.74 103.5,30.66 106.5,30.66 108.5,29.74 108.5,28.66 "
       id="polygon110"
       style="fill:#8c8c8c" />
    <polygon
       points="118.5,4.34 118.5,3.26 116.5,2.34 113.5,2.34 111.5,3.26 111.5,4.34 "
       id="polygon112"
       style="fill:#8c8c8c" />
    <polygon
       points="111.5,28.66 111.5,29.74 113.5,30.66 116.5,30.66 118.5,29.74 118.5,28.66 "
       id="polygon114"
       style="fill:#8c8c8c" />
    <polygon
       points="128.5,4.34 128.5,3.26 126.5,2.34 123.5,2.34 121.5,3.26 121.5,4.34 "
       id="polygon116"
       style="fill:#8c8c8c" />
    <polygon
       points="121.5,28.66 121.5,29.74 123.5,30.66 126.5,30.66 128.5,29.74 128.5,28.66 "
       id="polygon118"
       style="fill:#8c8c8c" />
    <polygon
       points="140,3 139.25,5.46 137.853,5.46 137.853,27.53 139.25,27.54 140,30 "
       id="polygon120"
       style="fill:#141414" />
    <polygon
       points="5,21.5 0.75,21.5 0.75,27.54 0,30 0,3 0.75,5.46 0.75,11.5 5,11.5 "
       id="polygon122"
       style="fill:#1f1f1f" />
    <polygon
       points="0.56,13.6 0.56,16.5 5,16.5 5,11.5 0.75,11.5 "
       id="polygon124"
       style="fill:#1c1c1c" />
    <polygon
       points="5,16.5 0.56,16.5 0.56,19.4 0.75,21.5 5,21.5 "
       id="polygon126"
       style="fill:#383838" />
    <path
       d="m 0.75,5.46 v 6 c 2.38,0.45 4.19,2.53 4.19,5.04 0,2.51 -1.8,4.6 -4.19,5.05 v 6 h 138.5 V 5.46 H 0.75 z"
       id="path128"
       style="fill:#303030" />
    <path
       d="m 0.56,13.6 v 5.83 C 2.03,19.26 3.18,18.03 3.18,16.51 3.18,15 2.04,13.75 0.56,13.6 z"
       id="path130"
       style="fill:#262626" />
    <circle
       cx="6.5"
       cy="23.469999"
       r="2.0599999"
       id="circle132"
       d="m 8.5599999,23.469999 c 0,1.137707 -0.9222933,2.06 -2.0599999,2.06 -1.1377066,0 -2.0599999,-0.922293 -2.0599999,-2.06 0,-1.137706 0.9222933,-2.06 2.0599999,-2.06 1.1377066,0 2.0599999,0.922294 2.0599999,2.06 z"
       sodipodi:cx="6.5"
       sodipodi:cy="23.469999"
       sodipodi:rx="2.0599999"
       sodipodi:ry="2.0599999"
       style="fill:#212121" />
    <g
       id="icpackage_text_layer">
      <path
         style="font-size:7px;fill:#665e55;font-family:ocra10"
         d="m 9.1552782,9.512248 -0.9365234,2.539551 1.8764652,0 -0.9399418,-2.539551 m -0.3896484,-0.6801757 0.7827148,0 1.9448244,5.1030277 -0.717774,0 -0.464843,-1.309082 -2.3002933,0 -0.4648438,1.309082 -0.7280273,0 1.9482422,-5.1030277 m 2.2148442,0 4.316894,0 0,0.5810546 -1.811523,0 0,4.5219731 -0.693848,0 0,-4.5219731 -1.811523,0 0,-0.5810546 m 4.986816,0 1.028809,0 1.302246,3.4726567 1.309082,-3.4726567 1.028808,0 0,5.1030277 -0.67334,0 0,-4.4809574 -1.315918,3.5000004 -0.693847,0 -1.315918,-3.5000004 0,4.4809574 -0.669922,0 0,-5.1030277 m 6.042969,0 3.226562,0 0,0.5810546 -2.536133,0 0,1.5107421 2.430176,0 0,0.581055 -2.430176,0 0,1.849121 2.597657,0 0,0.581055 -3.288086,0 0,-5.1030277 m 7.909179,4.3749997 0,-1.370605 -1.127929,0 0,-0.567383 1.811523,0 0,2.190918 c -0.266606,0.189128 -0.560551,0.332682 -0.881836,0.430664 -0.321293,0.0957 -0.664228,0.143555 -1.028808,0.143555 -0.797529,0 -1.421877,-0.232422 -1.873047,-0.697266 -0.448894,-0.467121 -0.673341,-1.116535 -0.67334,-1.948242 -10e-7,-0.833981 0.224446,-1.4833945 0.67334,-1.9482423 0.45117,-0.4671174 1.075518,-0.7006784 1.873047,-0.7006836 0.332679,5.2e-6 0.648271,0.041021 0.946777,0.1230469 0.300777,0.082036 0.577632,0.2028043 0.830566,0.3623047 l 0,0.7348632 C 30.214519,9.7435348 29.94336,9.5806118 29.656255,9.4712324 29.369142,9.361862 29.067222,9.3071745 28.750493,9.3071699 c -0.624351,4.6e-6 -1.093752,0.1743209 -1.408203,0.5229492 -0.312176,0.3486369 -0.468263,0.8681669 -0.468262,1.5585939 -10e-7,0.688153 0.156086,1.206544 0.468262,1.555176 0.314451,0.348633 0.783852,0.522949 1.408203,0.522949 0.243812,0 0.461422,-0.02051 0.652832,-0.06152 0.191402,-0.04329 0.36344,-0.109374 0.516113,-0.198242 m 3.653809,-3.694824 -0.936523,2.539551 1.876464,0 -0.939941,-2.539551 m -0.389648,-0.6801757 0.782714,0 1.944825,5.1030277 -0.717774,0 -0.464844,-1.309082 -2.300293,0 -0.464843,1.309082 -0.728028,0 1.948243,-5.1030277"
         id="text135" />
      <path
         style="font-size:7px;fill:#665e55;font-family:ocra10"
         d="m 7.6308641,20.354046 1.1279297,0 0,-3.893067 -1.2270508,0.246094 0,-0.628906 1.2202149,-0.246094 0.6904297,0 0,4.521973 1.1279294,0 0,0.581055 -2.9394529,0 0,-0.581055 M 13.530278,18.10844 c -0.309898,3e-6 -0.555991,0.10596 -0.738281,0.317871 -0.180014,0.211917 -0.270021,0.502444 -0.27002,0.871583 -10e-7,0.366863 0.09001,0.65739 0.27002,0.871582 0.18229,0.211914 0.428383,0.317871 0.738281,0.317871 0.309893,0 0.554848,-0.105957 0.734863,-0.317871 0.182289,-0.214192 0.273435,-0.504719 0.273438,-0.871582 -3e-6,-0.369139 -0.09115,-0.659666 -0.273438,-0.871583 -0.180015,-0.211911 -0.42497,-0.317868 -0.734863,-0.317871 m 1.370606,-2.163574 0,0.628906 c -0.173181,-0.08203 -0.348636,-0.144689 -0.526368,-0.187988 -0.175458,-0.04329 -0.349774,-0.06494 -0.522949,-0.06494 -0.455731,4e-6 -0.804364,0.153813 -1.045898,0.461426 -0.239259,0.307621 -0.375978,0.772464 -0.410156,1.394531 0.134438,-0.198239 0.303058,-0.349769 0.505859,-0.45459 0.202798,-0.107093 0.426105,-0.160641 0.669922,-0.160645 0.512692,4e-6 0.917152,0.156091 1.213379,0.468262 0.298498,0.309899 0.44775,0.732587 0.447754,1.268067 -4e-6,0.524089 -0.154952,0.944499 -0.464844,1.26123 -0.309899,0.316732 -0.722334,0.475098 -1.237305,0.475098 -0.590171,0 -1.041342,-0.225586 -1.353515,-0.676758 -0.312176,-0.45345 -0.468263,-1.109699 -0.468262,-1.96875 -10e-7,-0.806637 0.191405,-1.449215 0.574219,-1.927735 0.382811,-0.480789 0.896645,-0.721186 1.541504,-0.721191 0.173174,5e-6 0.34749,0.01709 0.522949,0.05127 0.177731,0.03418 0.362301,0.08545 0.553711,0.153808 m 3.000976,2.566895 c -0.328127,2e-6 -0.586753,0.08773 -0.775879,0.263183 -0.18685,0.175458 -0.280274,0.416994 -0.280273,0.72461 -10e-7,0.307618 0.09342,0.549154 0.280273,0.724609 0.189126,0.175456 0.447752,0.263184 0.775879,0.263184 0.328123,0 0.586749,-0.08773 0.775879,-0.263184 0.189125,-0.177733 0.283688,-0.41927 0.283692,-0.724609 -4e-6,-0.307616 -0.09457,-0.549152 -0.283692,-0.72461 -0.186852,-0.175453 -0.445478,-0.263181 -0.775879,-0.263183 m -0.690429,-0.293946 c -0.296226,-0.07291 -0.527508,-0.210771 -0.693848,-0.413574 -0.164063,-0.202796 -0.246094,-0.450029 -0.246094,-0.741699 0,-0.407873 0.144693,-0.730301 0.434082,-0.967285 0.291666,-0.236974 0.690428,-0.355464 1.196289,-0.355469 0.508136,5e-6 0.906898,0.118495 1.196289,0.355469 0.289385,0.236984 0.434078,0.559412 0.434082,0.967285 -4e-6,0.29167 -0.08317,0.538903 -0.249511,0.741699 -0.164066,0.202803 -0.39307,0.340661 -0.687012,0.413574 0.332679,0.07748 0.591305,0.229007 0.775879,0.45459 0.186845,0.225588 0.280269,0.501304 0.280273,0.827149 -4e-6,0.494467 -0.151534,0.873861 -0.45459,1.138183 -0.300784,0.264323 -0.732587,0.396485 -1.29541,0.396485 -0.562827,0 -0.995769,-0.132162 -1.298828,-0.396485 -0.300782,-0.264322 -0.451172,-0.643716 -0.451172,-1.138183 0,-0.325845 0.09342,-0.601561 0.280274,-0.827149 0.186848,-0.225583 0.446613,-0.377113 0.779297,-0.45459 m -0.25293,-1.090332 c -10e-7,0.264327 0.08203,0.470544 0.246094,0.618653 0.166339,0.148115 0.398761,0.222171 0.697265,0.222168 0.296222,3e-6 0.527504,-0.07405 0.693848,-0.222168 0.168617,-0.148109 0.252926,-0.354326 0.25293,-0.618653 -4e-6,-0.264318 -0.08431,-0.470536 -0.25293,-0.618652 -0.166344,-0.148107 -0.397626,-0.222163 -0.693848,-0.222168 -0.298504,5e-6 -0.530926,0.07406 -0.697265,0.222168 -0.164064,0.148116 -0.246095,0.354334 -0.246094,0.618652"
         id="text2515" />
    </g>
  </g>
  <g
     transform="matrix(-1,0,0,1,23.932204,3.2288136)"
     id="layer1">
    <path
       d="m 19.3125,19.03125 c 0,1.2599 -3.609704,2.28125 -8.0625,2.28125 -4.4527959,0 -8.0625001,-1.02135 -8.0625,-2.28125 -10e-8,-1.2599 3.6097041,-2.28125 8.0625,-2.28125 4.452796,0 8.0625,1.02135 8.0625,2.28125 l 0,0 z"
       transform="matrix(1.4061954,0,0,1.3667076,-3.8196983,-5.1279557)"
       id="path2621"
       style="opacity:0.16292138;fill:url(#radialGradient2526);fill-opacity:1;fill-rule:nonzero;stroke:none;stroke-width:1;marker:none;visibility:visible;display:inline;overflow:visible" />
    <path
       d="M 13.500001,1.4884489 1.4884485,12.026409 13.500001,22.511552 l 0,-5.011552 9.011551,0 0,-11 -9.011551,0 0,-5.0115511 z"
       id="path2624"
       style="fill:url(#linearGradient2532);fill-opacity:1;fill-rule:nonzero;stroke:#bf8407;stroke-width:0.97689688;stroke-linecap:round;stroke-linejoin:round;stroke-miterlimit:4;stroke-opacity:1;stroke-dasharray:none;stroke-dashoffset:0;marker:none;visibility:visible;display:inline;overflow:visible" />
    <path
       d="M 12.500001,3.5938361 2.9827655,12 l 9.5172355,8.363535 0,-3.863535 9,0 0,-9 -9,0 0,-3.9061639 z"
       id="path2626"
       style="opacity:0.35400008;fill:none;stroke:url(#linearGradient3249);stroke-width:1;stroke-linecap:butt;stroke-linejoin:miter;stroke-miterlimit:4;stroke-opacity:1;stroke-dasharray:none;stroke-dashoffset:0;marker:none;visibility:visible;display:inline;overflow:visible" />
  </g>
</svg>
