<?xml version="1.0" encoding="UTF-8" standalone="no"?>
<!-- Created with Inkscape (http://www.inkscape.org/) -->
<svg xmlns:svg="http://www.w3.org/2000/svg" xmlns="http://www.w3.org/2000/svg" version="1.0" width="354.33069" height="354.33069" id="svg2">
  <defs id="defs4"/>
  <g style="display: inline;" id="layer3">
    <rect width="311.05637" height="311.05637" ry="45.906303" x="23.05707" y="20.895391" style="fill: rgb(118, 193, 255); fill-opacity: 1; fill-rule: nonzero; stroke: black; stroke-width: 9.56693; stroke-linecap: butt; stroke-linejoin: round; stroke-miterlimit: 4; stroke-dasharray: none; stroke-opacity: 1;" id="rect7214"/>
  </g>
  <g style="display: inline;" id="layer2">
    <rect width="33.971706" height="34.054432" x="226.23077" y="198.17175" style="fill: white; fill-opacity: 1; fill-rule: nonzero; stroke: none; stroke-width: 0.988778; stroke-linecap: butt; stroke-linejoin: miter; stroke-miterlimit: 4; stroke-dasharray: none; stroke-opacity: 1;" id="rect1933"/>
    <path d="M 92.57172 87.795685 A 24.204533 24.204533 0 1 1  44.162655,87.795685 A 24.204533 24.204533 0 1 1  92.57172 87.795685 z" transform="matrix(1.0275, 0, 0, 1.0275, 3.16439, 82.2712)" style="fill: white; fill-opacity: 1; fill-rule: nonzero; stroke: none; stroke-width: 1; stroke-linecap: butt; stroke-linejoin: miter; stroke-miterlimit: 4; stroke-dasharray: none; stroke-opacity: 1;" id="path2830"/>
    <path d="M 92.57172 87.795685 A 24.204533 24.204533 0 1 1  44.162655,87.795685 A 24.204533 24.204533 0 1 1  92.57172 87.795685 z" transform="matrix(0.683726, 0, 0, 0.683726, 157.797, 69.6495)" style="fill: white; fill-opacity: 1; fill-rule: nonzero; stroke: none; stroke-width: 1; stroke-linecap: butt; stroke-linejoin: miter; stroke-miterlimit: 4; stroke-dasharray: none; stroke-opacity: 1;" id="path4602"/>
    <path d="M 280.71527,156.68252 C 280.71527,156.68252 314.45387,172.15662 313.94652,172.53713 C 313.43918,172.91764 280.71527,187.8844 280.71527,187.8844 L 280.71527,156.68252 z " style="fill: white; fill-opacity: 1; fill-rule: evenodd; stroke: none; stroke-width: 1px; stroke-linecap: butt; stroke-linejoin: miter; stroke-opacity: 1;" id="path4608"/>
    <path d="M 105.26052,171.85683 C 134.37556,169.11446 149.06431,129.49109 165.95578,129.49109 C 177.37657,129.49109 182.37292,130.02033 196.90547,130.02033" style="fill: none; fill-rule: evenodd; stroke: white; stroke-width: 9.56693; stroke-linecap: round; stroke-linejoin: round; stroke-miterlimit: 4; stroke-dasharray: none; stroke-opacity: 1;" id="path2766"/>
    <path d="M 139.78853,172.06998 C 169.86819,172.06998 176.95255,200.52662 199.2026,214.63263 C 202.97271,216.78698 236.97535,215.38634 239.14879,215.38634" style="fill: none; fill-rule: evenodd; stroke: white; stroke-width: 9.56693; stroke-linecap: butt; stroke-linejoin: round; stroke-miterlimit: 4; stroke-dasharray: none; stroke-opacity: 1;" id="path3653"/>
    <path d="M 74.032648,171.98191 L 289.16391,171.98191" style="fill: none; fill-rule: evenodd; stroke: white; stroke-width: 9.56693; stroke-linecap: butt; stroke-linejoin: miter; stroke-miterlimit: 4; stroke-dasharray: none; stroke-opacity: 1; display: inline;" id="path5436"/>
  </g>
</svg>